<?xml version="1.0" encoding="UTF-8" standalone="no"?>
<!DOCTYPE svg PUBLIC "-//W3C//DTD SVG 1.1//EN"
 "http://www.w3.org/Graphics/SVG/1.1/DTD/svg11.dtd">
<!-- Generated by graphviz version 2.38.0 (20140413.2041)
 -->
<!-- Title: controllers_diagram Pages: 1 -->
<svg width="762pt" height="741pt"
 viewBox="0.00 0.00 761.50 741.00" xmlns="http://www.w3.org/2000/svg" xmlns:xlink="http://www.w3.org/1999/xlink">
<g id="graph0" class="graph" transform="scale(1 1) rotate(0) translate(323.5 401.5)">
<title>controllers_diagram</title>
<polygon fill="none" stroke="none" points="-323.5,339.5 -323.5,-401.5 438,-401.5 438,339.5 -323.5,339.5"/>
<!-- _diagram_info -->
<g id="node1" class="node"><title>_diagram_info</title>
<text text-anchor="start" x="88" y="-111.6" font-family="Times,serif" font-size="13.00">Controllers diagram</text>
<text text-anchor="start" x="88" y="-97.6" font-family="Times,serif" font-size="13.00">Date: Apr 09 2018 &#45; 12:47</text>
<text text-anchor="start" x="88" y="-83.6" font-family="Times,serif" font-size="13.00">Migration version: 20180409142920</text>
<text text-anchor="start" x="88" y="-69.6" font-family="Times,serif" font-size="13.00">Generated by RailRoady 1.5.3</text>
<text text-anchor="start" x="88" y="-55.6" font-family="Times,serif" font-size="13.00">http://railroady.prestonlee.com</text>
</g>
<!-- Players::ConfirmationsController -->
<g id="node2" class="node"><title>Players::ConfirmationsController</title>
<path fill="none" stroke="black" d="M-132,-145C-132,-145 42,-145 42,-145 48,-145 54,-151 54,-157 54,-157 54,-227 54,-227 54,-233 48,-239 42,-239 42,-239 -132,-239 -132,-239 -138,-239 -144,-233 -144,-227 -144,-227 -144,-157 -144,-157 -144,-151 -138,-145 -132,-145"/>
<text text-anchor="middle" x="-45" y="-223.8" font-family="Times,serif" font-size="14.00">Players::ConfirmationsController</text>
<polyline fill="none" stroke="black" points="-144,-216 54,-216 "/>
<polyline fill="none" stroke="black" points="-144,-192 54,-192 "/>
<polyline fill="none" stroke="black" points="-144,-168 54,-168 "/>
<text text-anchor="start" x="-136" y="-152.8" font-family="Times,serif" font-size="14.00">_layout</text>
</g>
<!-- Players::PasswordsController -->
<g id="node3" class="node"><title>Players::PasswordsController</title>
<path fill="none" stroke="black" d="M-228,239C-228,239 -76,239 -76,239 -70,239 -64,233 -64,227 -64,227 -64,157 -64,157 -64,151 -70,145 -76,145 -76,145 -228,145 -228,145 -234,145 -240,151 -240,157 -240,157 -240,227 -240,227 -240,233 -234,239 -228,239"/>
<text text-anchor="middle" x="-152" y="160.2" font-family="Times,serif" font-size="14.00">Players::PasswordsController</text>
<polyline fill="none" stroke="black" points="-240,168 -64,168 "/>
<polyline fill="none" stroke="black" points="-240,192 -64,192 "/>
<polyline fill="none" stroke="black" points="-240,216 -64,216 "/>
<text text-anchor="start" x="-232" y="231.2" font-family="Times,serif" font-size="14.00">_layout</text>
</g>
<!-- Players::RegistrationsController -->
<g id="node4" class="node"><title>Players::RegistrationsController</title>
<path fill="none" stroke="black" d="M92.5,207C92.5,207 259.5,207 259.5,207 265.5,207 271.5,201 271.5,195 271.5,195 271.5,125 271.5,125 271.5,119 265.5,113 259.5,113 259.5,113 92.5,113 92.5,113 86.5,113 80.5,119 80.5,125 80.5,125 80.5,195 80.5,195 80.5,201 86.5,207 92.5,207"/>
<text text-anchor="middle" x="176" y="128.2" font-family="Times,serif" font-size="14.00">Players::RegistrationsController</text>
<polyline fill="none" stroke="black" points="80.5,136 271.5,136 "/>
<polyline fill="none" stroke="black" points="80.5,160 271.5,160 "/>
<polyline fill="none" stroke="black" points="80.5,184 271.5,184 "/>
<text text-anchor="start" x="88.5" y="199.2" font-family="Times,serif" font-size="14.00">_layout</text>
</g>
<!-- Players::SessionsController -->
<g id="node5" class="node"><title>Players::SessionsController</title>
<path fill="none" stroke="black" d="M-20,-273C-20,-273 122,-273 122,-273 128,-273 134,-279 134,-285 134,-285 134,-355 134,-355 134,-361 128,-367 122,-367 122,-367 -20,-367 -20,-367 -26,-367 -32,-361 -32,-355 -32,-355 -32,-285 -32,-285 -32,-279 -26,-273 -20,-273"/>
<text text-anchor="middle" x="51" y="-351.8" font-family="Times,serif" font-size="14.00">Players::SessionsController</text>
<polyline fill="none" stroke="black" points="-32,-344 134,-344 "/>
<polyline fill="none" stroke="black" points="-32,-320 134,-320 "/>
<polyline fill="none" stroke="black" points="-32,-296 134,-296 "/>
<text text-anchor="start" x="-24" y="-280.8" font-family="Times,serif" font-size="14.00">_layout</text>
</g>
<!-- Players::UnlocksController -->
<g id="node6" class="node"><title>Players::UnlocksController</title>
<path fill="none" stroke="black" d="M-212,-273C-212,-273 -72,-273 -72,-273 -66,-273 -60,-279 -60,-285 -60,-285 -60,-355 -60,-355 -60,-361 -66,-367 -72,-367 -72,-367 -212,-367 -212,-367 -218,-367 -224,-361 -224,-355 -224,-355 -224,-285 -224,-285 -224,-279 -218,-273 -212,-273"/>
<text text-anchor="middle" x="-142" y="-351.8" font-family="Times,serif" font-size="14.00">Players::UnlocksController</text>
<polyline fill="none" stroke="black" points="-224,-344 -60,-344 "/>
<polyline fill="none" stroke="black" points="-224,-320 -60,-320 "/>
<polyline fill="none" stroke="black" points="-224,-296 -60,-296 "/>
<text text-anchor="start" x="-216" y="-280.8" font-family="Times,serif" font-size="14.00">_layout</text>
</g>
<!-- Players::OmniauthCallbacksController -->
<g id="node7" class="node"><title>Players::OmniauthCallbacksController</title>
<path fill="none" stroke="black" d="M92.5,79C92.5,79 295.5,79 295.5,79 301.5,79 307.5,73 307.5,67 307.5,67 307.5,-3 307.5,-3 307.5,-9 301.5,-15 295.5,-15 295.5,-15 92.5,-15 92.5,-15 86.5,-15 80.5,-9 80.5,-3 80.5,-3 80.5,67 80.5,67 80.5,73 86.5,79 92.5,79"/>
<text text-anchor="middle" x="194" y="0.2" font-family="Times,serif" font-size="14.00">Players::OmniauthCallbacksController</text>
<polyline fill="none" stroke="black" points="80.5,8 307.5,8 "/>
<polyline fill="none" stroke="black" points="80.5,32 307.5,32 "/>
<polyline fill="none" stroke="black" points="80.5,56 307.5,56 "/>
<text text-anchor="start" x="88.5" y="71.2" font-family="Times,serif" font-size="14.00">_layout</text>
</g>
<!-- ApplicationController -->
<g id="node8" class="node"><title>ApplicationController</title>
<path fill="none" stroke="black" d="M172,-160C172,-160 342,-160 342,-160 348,-160 354,-166 354,-172 354,-172 354,-240 354,-240 354,-246 348,-252 342,-252 342,-252 172,-252 172,-252 166,-252 160,-246 160,-240 160,-240 160,-172 160,-172 160,-166 166,-160 172,-160"/>
<text text-anchor="middle" x="257" y="-236.8" font-family="Times,serif" font-size="14.00">ApplicationController</text>
<polyline fill="none" stroke="black" points="160,-229 354,-229 "/>
<text text-anchor="start" x="168" y="-213.8" font-family="Times,serif" font-size="14.00">current_user</text>
<polyline fill="none" stroke="black" points="160,-206 354,-206 "/>
<text text-anchor="start" x="168" y="-190.8" font-family="Times,serif" font-size="14.00">configure_permitted_parameters</text>
<polyline fill="none" stroke="black" points="160,-183 354,-183 "/>
<text text-anchor="start" x="168" y="-167.8" font-family="Times,serif" font-size="14.00">_layout</text>
</g>
<!-- OrbsController -->
<g id="node9" class="node"><title>OrbsController</title>
<path fill="none" stroke="black" d="M172,-288.5C172,-288.5 246,-288.5 246,-288.5 252,-288.5 258,-294.5 258,-300.5 258,-300.5 258,-369.5 258,-369.5 258,-375.5 252,-381.5 246,-381.5 246,-381.5 172,-381.5 172,-381.5 166,-381.5 160,-375.5 160,-369.5 160,-369.5 160,-300.5 160,-300.5 160,-294.5 166,-288.5 172,-288.5"/>
<text text-anchor="middle" x="209" y="-366.3" font-family="Times,serif" font-size="14.00">OrbsController</text>
<polyline fill="none" stroke="black" points="160,-358.5 258,-358.5 "/>
<text text-anchor="start" x="168" y="-343.3" font-family="Times,serif" font-size="14.00">index</text>
<polyline fill="none" stroke="black" points="160,-335.5 258,-335.5 "/>
<polyline fill="none" stroke="black" points="160,-311.5 258,-311.5 "/>
<text text-anchor="start" x="168" y="-296.3" font-family="Times,serif" font-size="14.00">_layout</text>
</g>
<!-- BillingsController -->
<g id="node10" class="node"><title>BillingsController</title>
<path fill="none" stroke="black" d="M-212.5,64C-212.5,64 -121.5,64 -121.5,64 -115.5,64 -109.5,58 -109.5,52 -109.5,52 -109.5,-92 -109.5,-92 -109.5,-98 -115.5,-104 -121.5,-104 -121.5,-104 -212.5,-104 -212.5,-104 -218.5,-104 -224.5,-98 -224.5,-92 -224.5,-92 -224.5,52 -224.5,52 -224.5,58 -218.5,64 -212.5,64"/>
<text text-anchor="middle" x="-167" y="-88.8" font-family="Times,serif" font-size="14.00">BillingsController</text>
<polyline fill="none" stroke="black" points="-224.5,-81 -109.5,-81 "/>
<text text-anchor="start" x="-216.5" y="-65.8" font-family="Times,serif" font-size="14.00">create</text>
<text text-anchor="start" x="-216.5" y="-50.8" font-family="Times,serif" font-size="14.00">destroy</text>
<text text-anchor="start" x="-216.5" y="-35.8" font-family="Times,serif" font-size="14.00">execute</text>
<text text-anchor="start" x="-216.5" y="-20.8" font-family="Times,serif" font-size="14.00">index</text>
<text text-anchor="start" x="-216.5" y="-5.8" font-family="Times,serif" font-size="14.00">pre_pay</text>
<polyline fill="none" stroke="black" points="-224.5,2 -109.5,2 "/>
<polyline fill="none" stroke="black" points="-224.5,26 -109.5,26 "/>
<text text-anchor="start" x="-216.5" y="41.2" font-family="Times,serif" font-size="14.00">_layout</text>
<text text-anchor="start" x="-216.5" y="56.2" font-family="Times,serif" font-size="14.00">set_orb_price</text>
</g>
<!-- ChallengesController -->
<g id="node11" class="node"><title>ChallengesController</title>
<path fill="none" stroke="black" d="M-68,111.5C-68,111.5 40,111.5 40,111.5 46,111.5 52,105.5 52,99.5 52,99.5 52,-89.5 52,-89.5 52,-95.5 46,-101.5 40,-101.5 40,-101.5 -68,-101.5 -68,-101.5 -74,-101.5 -80,-95.5 -80,-89.5 -80,-89.5 -80,99.5 -80,99.5 -80,105.5 -74,111.5 -68,111.5"/>
<text text-anchor="middle" x="-14" y="-86.3" font-family="Times,serif" font-size="14.00">ChallengesController</text>
<polyline fill="none" stroke="black" points="-80,-78.5 52,-78.5 "/>
<text text-anchor="start" x="-72" y="-63.3" font-family="Times,serif" font-size="14.00">confirm</text>
<text text-anchor="start" x="-72" y="-48.3" font-family="Times,serif" font-size="14.00">confirmed</text>
<text text-anchor="start" x="-72" y="-33.3" font-family="Times,serif" font-size="14.00">create</text>
<text text-anchor="start" x="-72" y="-18.3" font-family="Times,serif" font-size="14.00">destroy</text>
<text text-anchor="start" x="-72" y="-3.3" font-family="Times,serif" font-size="14.00">explore</text>
<text text-anchor="start" x="-72" y="11.7" font-family="Times,serif" font-size="14.00">new</text>
<text text-anchor="start" x="-72" y="26.7" font-family="Times,serif" font-size="14.00">show</text>
<polyline fill="none" stroke="black" points="-80,34.5 52,34.5 "/>
<polyline fill="none" stroke="black" points="-80,58.5 52,58.5 "/>
<text text-anchor="start" x="-72" y="73.7" font-family="Times,serif" font-size="14.00">_layout</text>
<text text-anchor="start" x="-72" y="88.7" font-family="Times,serif" font-size="14.00">challenge_params</text>
<text text-anchor="start" x="-72" y="103.7" font-family="Times,serif" font-size="14.00">set_challenge</text>
</g>
<!-- ParticipationsController -->
<g id="node12" class="node"><title>ParticipationsController</title>
<path fill="none" stroke="black" d="M300,-289C300,-289 422,-289 422,-289 428,-289 434,-295 434,-301 434,-301 434,-385 434,-385 434,-391 428,-397 422,-397 422,-397 300,-397 300,-397 294,-397 288,-391 288,-385 288,-385 288,-301 288,-301 288,-295 294,-289 300,-289"/>
<text text-anchor="middle" x="361" y="-381.8" font-family="Times,serif" font-size="14.00">ParticipationsController</text>
<polyline fill="none" stroke="black" points="288,-374 434,-374 "/>
<text text-anchor="start" x="296" y="-358.8" font-family="Times,serif" font-size="14.00">create</text>
<text text-anchor="start" x="296" y="-343.8" font-family="Times,serif" font-size="14.00">new</text>
<polyline fill="none" stroke="black" points="288,-336 434,-336 "/>
<polyline fill="none" stroke="black" points="288,-312 434,-312 "/>
<text text-anchor="start" x="296" y="-296.8" font-family="Times,serif" font-size="14.00">_layout</text>
</g>
<!-- CasesController -->
<g id="node13" class="node"><title>CasesController</title>
<path fill="none" stroke="black" d="M12,335C12,335 92,335 92,335 98,335 104,329 104,323 104,323 104,253 104,253 104,247 98,241 92,241 92,241 12,241 12,241 6,241 0,247 0,253 0,253 0,323 0,323 0,329 6,335 12,335"/>
<text text-anchor="middle" x="52" y="256.2" font-family="Times,serif" font-size="14.00">CasesController</text>
<polyline fill="none" stroke="black" points="0,264 104,264 "/>
<polyline fill="none" stroke="black" points="0,288 104,288 "/>
<polyline fill="none" stroke="black" points="0,312 104,312 "/>
<text text-anchor="start" x="8" y="327.2" font-family="Times,serif" font-size="14.00">_layout</text>
</g>
<!-- ConfirmationsController -->
<g id="node14" class="node"><title>ConfirmationsController</title>
<path fill="none" stroke="black" d="M-307.5,-144.5C-307.5,-144.5 -180.5,-144.5 -180.5,-144.5 -174.5,-144.5 -168.5,-150.5 -168.5,-156.5 -168.5,-156.5 -168.5,-225.5 -168.5,-225.5 -168.5,-231.5 -174.5,-237.5 -180.5,-237.5 -180.5,-237.5 -307.5,-237.5 -307.5,-237.5 -313.5,-237.5 -319.5,-231.5 -319.5,-225.5 -319.5,-225.5 -319.5,-156.5 -319.5,-156.5 -319.5,-150.5 -313.5,-144.5 -307.5,-144.5"/>
<text text-anchor="middle" x="-244" y="-222.3" font-family="Times,serif" font-size="14.00">ConfirmationsController</text>
<polyline fill="none" stroke="black" points="-319.5,-214.5 -168.5,-214.5 "/>
<text text-anchor="start" x="-311.5" y="-199.3" font-family="Times,serif" font-size="14.00">create</text>
<polyline fill="none" stroke="black" points="-319.5,-191.5 -168.5,-191.5 "/>
<polyline fill="none" stroke="black" points="-319.5,-167.5 -168.5,-167.5 "/>
<text text-anchor="start" x="-311.5" y="-152.3" font-family="Times,serif" font-size="14.00">_layout</text>
</g>
<!-- BarracksController -->
<g id="node15" class="node"><title>BarracksController</title>
<path fill="none" stroke="black" d="M316,303C316,303 412,303 412,303 418,303 424,297 424,291 424,291 424,177 424,177 424,171 418,165 412,165 412,165 316,165 316,165 310,165 304,171 304,177 304,177 304,291 304,291 304,297 310,303 316,303"/>
<text text-anchor="middle" x="364" y="180.2" font-family="Times,serif" font-size="14.00">BarracksController</text>
<polyline fill="none" stroke="black" points="304,188 424,188 "/>
<text text-anchor="start" x="312" y="203.2" font-family="Times,serif" font-size="14.00">archived</text>
<text text-anchor="start" x="312" y="218.2" font-family="Times,serif" font-size="14.00">created</text>
<text text-anchor="start" x="312" y="233.2" font-family="Times,serif" font-size="14.00">important</text>
<text text-anchor="start" x="312" y="248.2" font-family="Times,serif" font-size="14.00">participations</text>
<polyline fill="none" stroke="black" points="304,256 424,256 "/>
<polyline fill="none" stroke="black" points="304,280 424,280 "/>
<text text-anchor="start" x="312" y="295.2" font-family="Times,serif" font-size="14.00">_layout</text>
</g>
</g>
</svg>
