<?xml version="1.0" encoding="UTF-8" standalone="no"?>
<!DOCTYPE svg PUBLIC "-//W3C//DTD SVG 1.1//EN"
 "http://www.w3.org/Graphics/SVG/1.1/DTD/svg11.dtd">
<!-- Generated by graphviz version 2.38.0 (20140413.2041)
 -->
<!-- Title: models_diagram Pages: 1 -->
<svg width="1756pt" height="1214pt"
 viewBox="0.00 0.00 1756.00 1214.00" xmlns="http://www.w3.org/2000/svg" xmlns:xlink="http://www.w3.org/1999/xlink">
<g id="graph0" class="graph" transform="scale(1 1) rotate(0) translate(4 1210)">
<title>models_diagram</title>
<polygon fill="none" stroke="none" points="-4,4 -4,-1210 1752,-1210 1752,4 -4,4"/>
<!-- _diagram_info -->
<g id="node1" class="node"><title>_diagram_info</title>
<text text-anchor="start" x="8" y="-1117.1" font-family="Times,serif" font-size="13.00">Models diagram</text>
<text text-anchor="start" x="8" y="-1103.1" font-family="Times,serif" font-size="13.00">Date: Apr 09 2018 &#45; 12:47</text>
<text text-anchor="start" x="8" y="-1089.1" font-family="Times,serif" font-size="13.00">Migration version: 20180409142920</text>
<text text-anchor="start" x="8" y="-1075.1" font-family="Times,serif" font-size="13.00">Generated by RailRoady 1.5.3</text>
<text text-anchor="start" x="8" y="-1061.1" font-family="Times,serif" font-size="13.00">http://railroady.prestonlee.com</text>
</g>
<!-- ApplicationRecord -->
<g id="node2" class="node"><title>ApplicationRecord</title>
<ellipse fill="none" stroke="black" cx="309" cy="-1092.5" rx="77.1866" ry="18"/>
<text text-anchor="middle" x="309" y="-1088.8" font-family="Times,serif" font-size="14.00">ApplicationRecord</text>
</g>
<!-- Country -->
<g id="node3" class="node"><title>Country</title>
<path fill="none" stroke="black" d="M416,-1047C416,-1047 636,-1047 636,-1047 642,-1047 648,-1053 648,-1059 648,-1059 648,-1126 648,-1126 648,-1132 642,-1138 636,-1138 636,-1138 416,-1138 416,-1138 410,-1138 404,-1132 404,-1126 404,-1126 404,-1059 404,-1059 404,-1053 410,-1047 416,-1047"/>
<text text-anchor="middle" x="526" y="-1122.8" font-family="Times,serif" font-size="14.00">Country</text>
<polyline fill="none" stroke="black" points="404,-1115 648,-1115 "/>
<text text-anchor="start" x="412" y="-1099.8" font-family="Times,serif" font-size="14.00">id :bigint</text>
<text text-anchor="start" x="412" y="-1084.8" font-family="Times,serif" font-size="14.00">name :character varying</text>
<text text-anchor="start" x="412" y="-1069.8" font-family="Times,serif" font-size="14.00">created_at :timestamp without time zone</text>
<text text-anchor="start" x="412" y="-1054.8" font-family="Times,serif" font-size="14.00">updated_at :timestamp without time zone</text>
</g>
<!-- Player -->
<g id="node6" class="node"><title>Player</title>
<path fill="none" stroke="black" d="M512.5,-640.5C512.5,-640.5 801.5,-640.5 801.5,-640.5 807.5,-640.5 813.5,-646.5 813.5,-652.5 813.5,-652.5 813.5,-929.5 813.5,-929.5 813.5,-935.5 807.5,-941.5 801.5,-941.5 801.5,-941.5 512.5,-941.5 512.5,-941.5 506.5,-941.5 500.5,-935.5 500.5,-929.5 500.5,-929.5 500.5,-652.5 500.5,-652.5 500.5,-646.5 506.5,-640.5 512.5,-640.5"/>
<text text-anchor="middle" x="657" y="-926.3" font-family="Times,serif" font-size="14.00">Player</text>
<polyline fill="none" stroke="black" points="500.5,-918.5 813.5,-918.5 "/>
<text text-anchor="start" x="508.5" y="-903.3" font-family="Times,serif" font-size="14.00">id :bigint</text>
<text text-anchor="start" x="508.5" y="-888.3" font-family="Times,serif" font-size="14.00">email :character varying</text>
<text text-anchor="start" x="508.5" y="-873.3" font-family="Times,serif" font-size="14.00">encrypted_password :character varying</text>
<text text-anchor="start" x="508.5" y="-858.3" font-family="Times,serif" font-size="14.00">reset_password_token :character varying</text>
<text text-anchor="start" x="508.5" y="-843.3" font-family="Times,serif" font-size="14.00">reset_password_sent_at :timestamp without time zone</text>
<text text-anchor="start" x="508.5" y="-828.3" font-family="Times,serif" font-size="14.00">remember_created_at :timestamp without time zone</text>
<text text-anchor="start" x="508.5" y="-813.3" font-family="Times,serif" font-size="14.00">sign_in_count :integer</text>
<text text-anchor="start" x="508.5" y="-798.3" font-family="Times,serif" font-size="14.00">current_sign_in_at :timestamp without time zone</text>
<text text-anchor="start" x="508.5" y="-783.3" font-family="Times,serif" font-size="14.00">last_sign_in_at :timestamp without time zone</text>
<text text-anchor="start" x="508.5" y="-768.3" font-family="Times,serif" font-size="14.00">current_sign_in_ip :inet</text>
<text text-anchor="start" x="508.5" y="-753.3" font-family="Times,serif" font-size="14.00">last_sign_in_ip :inet</text>
<text text-anchor="start" x="508.5" y="-738.3" font-family="Times,serif" font-size="14.00">username :character varying</text>
<text text-anchor="start" x="508.5" y="-723.3" font-family="Times,serif" font-size="14.00">level_id :bigint</text>
<text text-anchor="start" x="508.5" y="-708.3" font-family="Times,serif" font-size="14.00">honor :double precision</text>
<text text-anchor="start" x="508.5" y="-693.3" font-family="Times,serif" font-size="14.00">arbitrator_level :integer</text>
<text text-anchor="start" x="508.5" y="-678.3" font-family="Times,serif" font-size="14.00">country_id :bigint</text>
<text text-anchor="start" x="508.5" y="-663.3" font-family="Times,serif" font-size="14.00">created_at :timestamp without time zone</text>
<text text-anchor="start" x="508.5" y="-648.3" font-family="Times,serif" font-size="14.00">updated_at :timestamp without time zone</text>
</g>
<!-- Country&#45;&gt;Player -->
<g id="edge1" class="edge"><title>Country&#45;&gt;Player</title>
<path fill="none" stroke="#9c965c" d="M548.764,-1039.46C559.69,-1014.48 573.433,-983.056 587.424,-951.068"/>
<ellipse fill="none" stroke="#9c965c" cx="547.074" cy="-1043.32" rx="4.00002" ry="4.00002"/>
<polygon fill="#9c965c" stroke="#9c965c" points="587.565,-950.746 595.696,-943.387 589.569,-946.165 591.573,-941.584 591.573,-941.584 591.573,-941.584 589.569,-946.165 587.45,-939.78 587.565,-950.746 587.565,-950.746"/>
</g>
<!-- Language -->
<g id="node4" class="node"><title>Language</title>
<path fill="none" stroke="black" d="M1233,-745.5C1233,-745.5 1453,-745.5 1453,-745.5 1459,-745.5 1465,-751.5 1465,-757.5 1465,-757.5 1465,-824.5 1465,-824.5 1465,-830.5 1459,-836.5 1453,-836.5 1453,-836.5 1233,-836.5 1233,-836.5 1227,-836.5 1221,-830.5 1221,-824.5 1221,-824.5 1221,-757.5 1221,-757.5 1221,-751.5 1227,-745.5 1233,-745.5"/>
<text text-anchor="middle" x="1343" y="-821.3" font-family="Times,serif" font-size="14.00">Language</text>
<polyline fill="none" stroke="black" points="1221,-813.5 1465,-813.5 "/>
<text text-anchor="start" x="1229" y="-798.3" font-family="Times,serif" font-size="14.00">id :bigint</text>
<text text-anchor="start" x="1229" y="-783.3" font-family="Times,serif" font-size="14.00">name :character varying</text>
<text text-anchor="start" x="1229" y="-768.3" font-family="Times,serif" font-size="14.00">created_at :timestamp without time zone</text>
<text text-anchor="start" x="1229" y="-753.3" font-family="Times,serif" font-size="14.00">updated_at :timestamp without time zone</text>
</g>
<!-- Challenge -->
<g id="node9" class="node"><title>Challenge</title>
<path fill="none" stroke="black" d="M809.5,-347.5C809.5,-347.5 1054.5,-347.5 1054.5,-347.5 1060.5,-347.5 1066.5,-353.5 1066.5,-359.5 1066.5,-359.5 1066.5,-576.5 1066.5,-576.5 1066.5,-582.5 1060.5,-588.5 1054.5,-588.5 1054.5,-588.5 809.5,-588.5 809.5,-588.5 803.5,-588.5 797.5,-582.5 797.5,-576.5 797.5,-576.5 797.5,-359.5 797.5,-359.5 797.5,-353.5 803.5,-347.5 809.5,-347.5"/>
<text text-anchor="middle" x="932" y="-573.3" font-family="Times,serif" font-size="14.00">Challenge</text>
<polyline fill="none" stroke="black" points="797.5,-565.5 1066.5,-565.5 "/>
<text text-anchor="start" x="805.5" y="-550.3" font-family="Times,serif" font-size="14.00">id :bigint</text>
<text text-anchor="start" x="805.5" y="-535.3" font-family="Times,serif" font-size="14.00">title :character varying</text>
<text text-anchor="start" x="805.5" y="-520.3" font-family="Times,serif" font-size="14.00">description :character varying</text>
<text text-anchor="start" x="805.5" y="-505.3" font-family="Times,serif" font-size="14.00">local :boolean</text>
<text text-anchor="start" x="805.5" y="-490.3" font-family="Times,serif" font-size="14.00">capped :integer</text>
<text text-anchor="start" x="805.5" y="-475.3" font-family="Times,serif" font-size="14.00">status :integer</text>
<text text-anchor="start" x="805.5" y="-460.3" font-family="Times,serif" font-size="14.00">block_size :integer</text>
<text text-anchor="start" x="805.5" y="-445.3" font-family="Times,serif" font-size="14.00">closing_date :timestamp without time zone</text>
<text text-anchor="start" x="805.5" y="-430.3" font-family="Times,serif" font-size="14.00">expiration_date :timestamp without time zone</text>
<text text-anchor="start" x="805.5" y="-415.3" font-family="Times,serif" font-size="14.00">language_id :bigint</text>
<text text-anchor="start" x="805.5" y="-400.3" font-family="Times,serif" font-size="14.00">creator_id :bigint</text>
<text text-anchor="start" x="805.5" y="-385.3" font-family="Times,serif" font-size="14.00">created_at :timestamp without time zone</text>
<text text-anchor="start" x="805.5" y="-370.3" font-family="Times,serif" font-size="14.00">updated_at :timestamp without time zone</text>
<text text-anchor="start" x="805.5" y="-355.3" font-family="Times,serif" font-size="14.00">min_honor :double precision</text>
</g>
<!-- Language&#45;&gt;Challenge -->
<g id="edge2" class="edge"><title>Language&#45;&gt;Challenge</title>
<path fill="none" stroke="#93ac5d" d="M1279.44,-740.355C1224.94,-697.793 1144.41,-634.897 1074.6,-580.373"/>
<ellipse fill="none" stroke="#93ac5d" cx="1282.7" cy="-742.904" rx="4.00002" ry="4.00002"/>
<polygon fill="#93ac5d" stroke="#93ac5d" points="1074.46,-580.263 1069.35,-570.561 1070.52,-577.185 1066.58,-574.107 1066.58,-574.107 1066.58,-574.107 1070.52,-577.185 1063.81,-577.654 1074.46,-580.263 1074.46,-580.263"/>
</g>
<!-- Level -->
<g id="node5" class="node"><title>Level</title>
<path fill="none" stroke="black" d="M678,-1032C678,-1032 898,-1032 898,-1032 904,-1032 910,-1038 910,-1044 910,-1044 910,-1141 910,-1141 910,-1147 904,-1153 898,-1153 898,-1153 678,-1153 678,-1153 672,-1153 666,-1147 666,-1141 666,-1141 666,-1044 666,-1044 666,-1038 672,-1032 678,-1032"/>
<text text-anchor="middle" x="788" y="-1137.8" font-family="Times,serif" font-size="14.00">Level</text>
<polyline fill="none" stroke="black" points="666,-1130 910,-1130 "/>
<text text-anchor="start" x="674" y="-1114.8" font-family="Times,serif" font-size="14.00">id :bigint</text>
<text text-anchor="start" x="674" y="-1099.8" font-family="Times,serif" font-size="14.00">name :character varying</text>
<text text-anchor="start" x="674" y="-1084.8" font-family="Times,serif" font-size="14.00">picture :character varying</text>
<text text-anchor="start" x="674" y="-1069.8" font-family="Times,serif" font-size="14.00">points_required :integer</text>
<text text-anchor="start" x="674" y="-1054.8" font-family="Times,serif" font-size="14.00">created_at :timestamp without time zone</text>
<text text-anchor="start" x="674" y="-1039.8" font-family="Times,serif" font-size="14.00">updated_at :timestamp without time zone</text>
</g>
<!-- Level&#45;&gt;Player -->
<g id="edge3" class="edge"><title>Level&#45;&gt;Player</title>
<path fill="none" stroke="#8c18e7" d="M758.675,-1024.46C749.018,-1002.38 737.833,-976.805 726.487,-950.866"/>
<ellipse fill="none" stroke="#8c18e7" cx="760.359" cy="-1028.31" rx="4.00002" ry="4.00002"/>
<polygon fill="#8c18e7" stroke="#8c18e7" points="726.477,-950.843 726.593,-939.878 724.474,-946.262 722.47,-941.681 722.47,-941.681 722.47,-941.681 724.474,-946.262 718.347,-943.484 726.477,-950.843 726.477,-950.843"/>
</g>
<!-- Wallet -->
<g id="node7" class="node"><title>Wallet</title>
<path fill="none" stroke="black" d="M1483,-173.5C1483,-173.5 1703,-173.5 1703,-173.5 1709,-173.5 1715,-179.5 1715,-185.5 1715,-185.5 1715,-297.5 1715,-297.5 1715,-303.5 1709,-309.5 1703,-309.5 1703,-309.5 1483,-309.5 1483,-309.5 1477,-309.5 1471,-303.5 1471,-297.5 1471,-297.5 1471,-185.5 1471,-185.5 1471,-179.5 1477,-173.5 1483,-173.5"/>
<text text-anchor="middle" x="1593" y="-294.3" font-family="Times,serif" font-size="14.00">Wallet</text>
<polyline fill="none" stroke="black" points="1471,-286.5 1715,-286.5 "/>
<text text-anchor="start" x="1479" y="-271.3" font-family="Times,serif" font-size="14.00">id :bigint</text>
<text text-anchor="start" x="1479" y="-256.3" font-family="Times,serif" font-size="14.00">orbs :integer</text>
<text text-anchor="start" x="1479" y="-241.3" font-family="Times,serif" font-size="14.00">active :boolean</text>
<text text-anchor="start" x="1479" y="-226.3" font-family="Times,serif" font-size="14.00">owner_type :character varying</text>
<text text-anchor="start" x="1479" y="-211.3" font-family="Times,serif" font-size="14.00">owner_id :bigint</text>
<text text-anchor="start" x="1479" y="-196.3" font-family="Times,serif" font-size="14.00">created_at :timestamp without time zone</text>
<text text-anchor="start" x="1479" y="-181.3" font-family="Times,serif" font-size="14.00">updated_at :timestamp without time zone</text>
</g>
<!-- Player&#45;&gt;Wallet -->
<g id="edge4" class="edge"><title>Player&#45;&gt;Wallet</title>
<path fill="none" stroke="#ea3ded" d="M821.475,-717.732C899.894,-681.609 994.215,-635.704 1076,-589 1227.26,-502.619 1393.04,-387.624 1495.06,-314.308"/>
<ellipse fill="none" stroke="#ea3ded" cx="817.571" cy="-719.526" rx="4.00002" ry="4.00002"/>
<ellipse fill="#ea3ded" stroke="#ea3ded" cx="1498.44" cy="-311.876" rx="4.00002" ry="4.00002"/>
</g>
<!-- Billing -->
<g id="node8" class="node"><title>Billing</title>
<path fill="none" stroke="black" d="M547,-370C547,-370 767,-370 767,-370 773,-370 779,-376 779,-382 779,-382 779,-554 779,-554 779,-560 773,-566 767,-566 767,-566 547,-566 547,-566 541,-566 535,-560 535,-554 535,-554 535,-382 535,-382 535,-376 541,-370 547,-370"/>
<text text-anchor="middle" x="657" y="-550.8" font-family="Times,serif" font-size="14.00">Billing</text>
<polyline fill="none" stroke="black" points="535,-543 779,-543 "/>
<text text-anchor="start" x="543" y="-527.8" font-family="Times,serif" font-size="14.00">id :bigint</text>
<text text-anchor="start" x="543" y="-512.8" font-family="Times,serif" font-size="14.00">code :character varying</text>
<text text-anchor="start" x="543" y="-497.8" font-family="Times,serif" font-size="14.00">payment_method :character varying</text>
<text text-anchor="start" x="543" y="-482.8" font-family="Times,serif" font-size="14.00">paid_amount :numeric(8,2)</text>
<text text-anchor="start" x="543" y="-467.8" font-family="Times,serif" font-size="14.00">currency :character varying</text>
<text text-anchor="start" x="543" y="-452.8" font-family="Times,serif" font-size="14.00">orb_price :numeric(4,2)</text>
<text text-anchor="start" x="543" y="-437.8" font-family="Times,serif" font-size="14.00">total_orbs :integer</text>
<text text-anchor="start" x="543" y="-422.8" font-family="Times,serif" font-size="14.00">paid :boolean</text>
<text text-anchor="start" x="543" y="-407.8" font-family="Times,serif" font-size="14.00">player_id :bigint</text>
<text text-anchor="start" x="543" y="-392.8" font-family="Times,serif" font-size="14.00">created_at :timestamp without time zone</text>
<text text-anchor="start" x="543" y="-377.8" font-family="Times,serif" font-size="14.00">updated_at :timestamp without time zone</text>
</g>
<!-- Player&#45;&gt;Billing -->
<g id="edge5" class="edge"><title>Player&#45;&gt;Billing</title>
<path fill="none" stroke="#4167ea" d="M657,-632.039C657,-613.175 657,-594.265 657,-576.35"/>
<ellipse fill="none" stroke="#4167ea" cx="657" cy="-636.308" rx="4" ry="4"/>
<polygon fill="#4167ea" stroke="#4167ea" points="657,-576.217 661.5,-566.217 657,-571.217 657,-566.217 657,-566.217 657,-566.217 657,-571.217 652.5,-566.218 657,-576.217 657,-576.217"/>
</g>
<!-- Player&#45;&gt;Challenge -->
<g id="edge6" class="edge"><title>Player&#45;&gt;Challenge</title>
<path fill="none" stroke="#4e4c60" d="M790.464,-634.211C801.333,-621.524 812.236,-608.797 822.9,-596.349"/>
<ellipse fill="none" stroke="#4e4c60" cx="787.843" cy="-637.27" rx="4.00002" ry="4.00002"/>
<polygon fill="#4e4c60" stroke="#4e4c60" points="823.001,-596.232 832.924,-591.565 826.254,-592.434 829.507,-588.637 829.507,-588.637 829.507,-588.637 826.254,-592.434 826.09,-585.71 823.001,-596.232 823.001,-596.232"/>
<text text-anchor="middle" x="861.5" y="-610.8" font-family="Times,serif" font-size="14.00">created_challenges</text>
</g>
<!-- Participation -->
<g id="node15" class="node"><title>Participation</title>
<path fill="none" stroke="black" d="M734,-0.5C734,-0.5 954,-0.5 954,-0.5 960,-0.5 966,-6.5 966,-12.5 966,-12.5 966,-109.5 966,-109.5 966,-115.5 960,-121.5 954,-121.5 954,-121.5 734,-121.5 734,-121.5 728,-121.5 722,-115.5 722,-109.5 722,-109.5 722,-12.5 722,-12.5 722,-6.5 728,-0.5 734,-0.5"/>
<text text-anchor="middle" x="844" y="-106.3" font-family="Times,serif" font-size="14.00">Participation</text>
<polyline fill="none" stroke="black" points="722,-98.5 966,-98.5 "/>
<text text-anchor="start" x="730" y="-83.3" font-family="Times,serif" font-size="14.00">id :bigint</text>
<text text-anchor="start" x="730" y="-68.3" font-family="Times,serif" font-size="14.00">blocks :integer</text>
<text text-anchor="start" x="730" y="-53.3" font-family="Times,serif" font-size="14.00">player_id :bigint</text>
<text text-anchor="start" x="730" y="-38.3" font-family="Times,serif" font-size="14.00">party_id :bigint</text>
<text text-anchor="start" x="730" y="-23.3" font-family="Times,serif" font-size="14.00">created_at :timestamp without time zone</text>
<text text-anchor="start" x="730" y="-8.3" font-family="Times,serif" font-size="14.00">updated_at :timestamp without time zone</text>
</g>
<!-- Player&#45;&gt;Participation -->
<g id="edge7" class="edge"><title>Player&#45;&gt;Participation</title>
<path fill="none" stroke="#3b1c9f" d="M543.079,-632.867C536.26,-618.509 530.394,-603.79 526,-589 495.368,-485.899 509.323,-453.255 526,-347 538.597,-266.743 527.178,-232.954 582,-173 592.165,-161.883 652.122,-136.161 712.116,-112.275"/>
<ellipse fill="none" stroke="#3b1c9f" cx="544.973" cy="-636.747" rx="4.00002" ry="4.00002"/>
<polygon fill="#3b1c9f" stroke="#3b1c9f" points="712.441,-112.146 723.396,-112.643 717.089,-110.303 721.737,-108.46 721.737,-108.46 721.737,-108.46 717.089,-110.303 720.078,-104.276 712.441,-112.146 712.441,-112.146"/>
</g>
<!-- Confirmation -->
<g id="node16" class="node"><title>Confirmation</title>
<path fill="none" stroke="black" d="M444,-8C444,-8 664,-8 664,-8 670,-8 676,-14 676,-20 676,-20 676,-102 676,-102 676,-108 670,-114 664,-114 664,-114 444,-114 444,-114 438,-114 432,-108 432,-102 432,-102 432,-20 432,-20 432,-14 438,-8 444,-8"/>
<text text-anchor="middle" x="554" y="-98.8" font-family="Times,serif" font-size="14.00">Confirmation</text>
<polyline fill="none" stroke="black" points="432,-91 676,-91 "/>
<text text-anchor="start" x="440" y="-75.8" font-family="Times,serif" font-size="14.00">id :bigint</text>
<text text-anchor="start" x="440" y="-60.8" font-family="Times,serif" font-size="14.00">player_id :bigint</text>
<text text-anchor="start" x="440" y="-45.8" font-family="Times,serif" font-size="14.00">party_id :bigint</text>
<text text-anchor="start" x="440" y="-30.8" font-family="Times,serif" font-size="14.00">created_at :timestamp without time zone</text>
<text text-anchor="start" x="440" y="-15.8" font-family="Times,serif" font-size="14.00">updated_at :timestamp without time zone</text>
</g>
<!-- Player&#45;&gt;Confirmation -->
<g id="edge8" class="edge"><title>Player&#45;&gt;Confirmation</title>
<path fill="none" stroke="#a86a61" d="M497.881,-632.981C496.137,-629.36 494.506,-625.698 493,-622 417.745,-437.178 443.388,-366.29 493,-173 497.364,-155.997 504.939,-138.804 513.297,-123.193"/>
<ellipse fill="none" stroke="#a86a61" cx="499.809" cy="-636.79" rx="4.00002" ry="4.00002"/>
<polygon fill="#a86a61" stroke="#a86a61" points="513.436,-122.941 522.224,-116.382 515.863,-118.57 518.29,-114.198 518.29,-114.198 518.29,-114.198 515.863,-118.57 514.355,-112.014 513.436,-122.941 513.436,-122.941"/>
</g>
<!-- Transaction -->
<g id="node18" class="node"><title>Transaction</title>
<path fill="none" stroke="black" d="M1482,-0.5C1482,-0.5 1702,-0.5 1702,-0.5 1708,-0.5 1714,-6.5 1714,-12.5 1714,-12.5 1714,-109.5 1714,-109.5 1714,-115.5 1708,-121.5 1702,-121.5 1702,-121.5 1482,-121.5 1482,-121.5 1476,-121.5 1470,-115.5 1470,-109.5 1470,-109.5 1470,-12.5 1470,-12.5 1470,-6.5 1476,-0.5 1482,-0.5"/>
<text text-anchor="middle" x="1592" y="-106.3" font-family="Times,serif" font-size="14.00">Transaction</text>
<polyline fill="none" stroke="black" points="1470,-98.5 1714,-98.5 "/>
<text text-anchor="start" x="1478" y="-83.3" font-family="Times,serif" font-size="14.00">id :bigint</text>
<text text-anchor="start" x="1478" y="-68.3" font-family="Times,serif" font-size="14.00">orbs :integer</text>
<text text-anchor="start" x="1478" y="-53.3" font-family="Times,serif" font-size="14.00">origin_wallet_id :bigint</text>
<text text-anchor="start" x="1478" y="-38.3" font-family="Times,serif" font-size="14.00">destination_wallet_id :bigint</text>
<text text-anchor="start" x="1478" y="-23.3" font-family="Times,serif" font-size="14.00">created_at :timestamp without time zone</text>
<text text-anchor="start" x="1478" y="-8.3" font-family="Times,serif" font-size="14.00">updated_at :timestamp without time zone</text>
</g>
<!-- Wallet&#45;&gt;Transaction -->
<g id="edge9" class="edge"><title>Wallet&#45;&gt;Transaction</title>
<path fill="none" stroke="#07bbaf" d="M1538.98,-165.924C1537.47,-162.314 1536.13,-158.665 1535,-155 1532.56,-147.045 1532.63,-139.08 1534.43,-131.344"/>
<ellipse fill="none" stroke="#07bbaf" cx="1540.67" cy="-169.631" rx="4.00002" ry="4.00002"/>
<polygon fill="#07bbaf" stroke="#07bbaf" points="1534.48,-131.194 1541.86,-123.078 1536.03,-126.44 1537.58,-121.685 1537.58,-121.685 1537.58,-121.685 1536.03,-126.44 1533.3,-120.292 1534.48,-131.194 1534.48,-131.194"/>
<text text-anchor="middle" x="1582" y="-143.8" font-family="Times,serif" font-size="14.00">sent_transactions</text>
</g>
<!-- Wallet&#45;&gt;Transaction -->
<g id="edge10" class="edge"><title>Wallet&#45;&gt;Transaction</title>
<path fill="none" stroke="#a41ae1" d="M1629.72,-165.275C1630.91,-156.834 1630.87,-148.29 1629,-140 1628.33,-137.025 1627.53,-134.031 1626.63,-131.039"/>
<ellipse fill="none" stroke="#a41ae1" cx="1628.96" cy="-169.392" rx="4.00001" ry="4.00001"/>
<polygon fill="#a41ae1" stroke="#a41ae1" points="1626.62,-130.997 1627.71,-120.085 1625.03,-126.257 1623.44,-121.516 1623.44,-121.516 1623.44,-121.516 1625.03,-126.257 1619.17,-122.947 1626.62,-130.997 1626.62,-130.997"/>
<text text-anchor="middle" x="1689" y="-143.8" font-family="Times,serif" font-size="14.00">received_transactions</text>
</g>
<!-- Challenge&#45;&gt;Wallet -->
<g id="edge11" class="edge"><title>Challenge&#45;&gt;Wallet</title>
<path fill="none" stroke="#f0e8ea" d="M1074.19,-405.132C1143.25,-377.467 1228.17,-346.897 1307,-328 1374.44,-311.832 1395.66,-330.21 1462,-310 1462.37,-309.888 1462.73,-309.775 1463.1,-309.661"/>
<ellipse fill="none" stroke="#f0e8ea" cx="1070.42" cy="-406.651" rx="4.00001" ry="4.00001"/>
<ellipse fill="#f0e8ea" stroke="#f0e8ea" cx="1467.04" cy="-308.374" rx="4.00001" ry="4.00001"/>
</g>
<!-- Tag -->
<g id="node10" class="node"><title>Tag</title>
<path fill="none" stroke="black" d="M921,-196C921,-196 1141,-196 1141,-196 1147,-196 1153,-202 1153,-208 1153,-208 1153,-275 1153,-275 1153,-281 1147,-287 1141,-287 1141,-287 921,-287 921,-287 915,-287 909,-281 909,-275 909,-275 909,-208 909,-208 909,-202 915,-196 921,-196"/>
<text text-anchor="middle" x="1031" y="-271.8" font-family="Times,serif" font-size="14.00">Tag</text>
<polyline fill="none" stroke="black" points="909,-264 1153,-264 "/>
<text text-anchor="start" x="917" y="-248.8" font-family="Times,serif" font-size="14.00">id :bigint</text>
<text text-anchor="start" x="917" y="-233.8" font-family="Times,serif" font-size="14.00">name :character varying</text>
<text text-anchor="start" x="917" y="-218.8" font-family="Times,serif" font-size="14.00">created_at :timestamp without time zone</text>
<text text-anchor="start" x="917" y="-203.8" font-family="Times,serif" font-size="14.00">updated_at :timestamp without time zone</text>
</g>
<!-- Challenge&#45;&gt;Tag -->
<g id="edge13" class="edge"><title>Challenge&#45;&gt;Tag</title>
<path fill="none" stroke="#5ad518" d="M989.024,-337.688C995.38,-323.274 1001.57,-309.245 1007.15,-296.581"/>
<polygon fill="#5ad518" stroke="#5ad518" points="988.868,-338.042 980.716,-345.376 986.851,-342.616 984.833,-347.191 984.833,-347.191 984.833,-347.191 986.851,-342.616 988.951,-349.007 988.868,-338.042 988.868,-338.042"/>
<polygon fill="#5ad518" stroke="#5ad518" points="1007.26,-296.328 1015.42,-288.994 1009.28,-291.753 1011.3,-287.179 1011.3,-287.179 1011.3,-287.179 1009.28,-291.753 1007.18,-285.363 1007.26,-296.328 1007.26,-296.328"/>
</g>
<!-- ChallengeTag -->
<g id="node11" class="node"><title>ChallengeTag</title>
<path fill="none" stroke="black" d="M1034,-8C1034,-8 1254,-8 1254,-8 1260,-8 1266,-14 1266,-20 1266,-20 1266,-102 1266,-102 1266,-108 1260,-114 1254,-114 1254,-114 1034,-114 1034,-114 1028,-114 1022,-108 1022,-102 1022,-102 1022,-20 1022,-20 1022,-14 1028,-8 1034,-8"/>
<text text-anchor="middle" x="1144" y="-98.8" font-family="Times,serif" font-size="14.00">ChallengeTag</text>
<polyline fill="none" stroke="black" points="1022,-91 1266,-91 "/>
<text text-anchor="start" x="1030" y="-75.8" font-family="Times,serif" font-size="14.00">id :bigint</text>
<text text-anchor="start" x="1030" y="-60.8" font-family="Times,serif" font-size="14.00">challenge_id :bigint</text>
<text text-anchor="start" x="1030" y="-45.8" font-family="Times,serif" font-size="14.00">tag_id :bigint</text>
<text text-anchor="start" x="1030" y="-30.8" font-family="Times,serif" font-size="14.00">created_at :timestamp without time zone</text>
<text text-anchor="start" x="1030" y="-15.8" font-family="Times,serif" font-size="14.00">updated_at :timestamp without time zone</text>
</g>
<!-- Challenge&#45;&gt;ChallengeTag -->
<g id="edge12" class="edge"><title>Challenge&#45;&gt;ChallengeTag</title>
<path fill="none" stroke="#e62ce0" d="M1073.61,-401.418C1108.83,-377.853 1142.16,-347.573 1162,-310 1192.4,-252.444 1180.74,-176.653 1166.03,-124.076"/>
<ellipse fill="none" stroke="#e62ce0" cx="1069.89" cy="-403.851" rx="4.00002" ry="4.00002"/>
<polygon fill="#e62ce0" stroke="#e62ce0" points="1165.95,-123.811 1167.48,-112.952 1164.55,-119.011 1163.16,-114.21 1163.16,-114.21 1163.16,-114.21 1164.55,-119.011 1158.83,-115.469 1165.95,-123.811 1165.95,-123.811"/>
</g>
<!-- Verifier -->
<g id="node12" class="node"><title>Verifier</title>
<path fill="none" stroke="black" d="M1221,-188.5C1221,-188.5 1441,-188.5 1441,-188.5 1447,-188.5 1453,-194.5 1453,-200.5 1453,-200.5 1453,-282.5 1453,-282.5 1453,-288.5 1447,-294.5 1441,-294.5 1441,-294.5 1221,-294.5 1221,-294.5 1215,-294.5 1209,-288.5 1209,-282.5 1209,-282.5 1209,-200.5 1209,-200.5 1209,-194.5 1215,-188.5 1221,-188.5"/>
<text text-anchor="middle" x="1331" y="-279.3" font-family="Times,serif" font-size="14.00">Verifier</text>
<polyline fill="none" stroke="black" points="1209,-271.5 1453,-271.5 "/>
<text text-anchor="start" x="1217" y="-256.3" font-family="Times,serif" font-size="14.00">id :bigint</text>
<text text-anchor="start" x="1217" y="-241.3" font-family="Times,serif" font-size="14.00">description :character varying</text>
<text text-anchor="start" x="1217" y="-226.3" font-family="Times,serif" font-size="14.00">challenge_id :bigint</text>
<text text-anchor="start" x="1217" y="-211.3" font-family="Times,serif" font-size="14.00">created_at :timestamp without time zone</text>
<text text-anchor="start" x="1217" y="-196.3" font-family="Times,serif" font-size="14.00">updated_at :timestamp without time zone</text>
</g>
<!-- Challenge&#45;&gt;Verifier -->
<g id="edge14" class="edge"><title>Challenge&#45;&gt;Verifier</title>
<path fill="none" stroke="#baf7ec" d="M1073.98,-395.26C1113.52,-374.535 1156.25,-351.439 1195,-329 1210.63,-319.949 1227.02,-309.964 1242.8,-300.09"/>
<ellipse fill="none" stroke="#baf7ec" cx="1070.18" cy="-397.248" rx="4.00002" ry="4.00002"/>
<polygon fill="#baf7ec" stroke="#baf7ec" points="1243.03,-299.946 1253.89,-298.432 1247.27,-297.284 1251.5,-294.623 1251.5,-294.623 1251.5,-294.623 1247.27,-297.284 1249.1,-290.813 1243.03,-299.946 1243.03,-299.946"/>
</g>
<!-- Party -->
<g id="node13" class="node"><title>Party</title>
<path fill="none" stroke="black" d="M603,-173.5C603,-173.5 823,-173.5 823,-173.5 829,-173.5 835,-179.5 835,-185.5 835,-185.5 835,-297.5 835,-297.5 835,-303.5 829,-309.5 823,-309.5 823,-309.5 603,-309.5 603,-309.5 597,-309.5 591,-303.5 591,-297.5 591,-297.5 591,-185.5 591,-185.5 591,-179.5 597,-173.5 603,-173.5"/>
<text text-anchor="middle" x="713" y="-294.3" font-family="Times,serif" font-size="14.00">Party</text>
<polyline fill="none" stroke="black" points="591,-286.5 835,-286.5 "/>
<text text-anchor="start" x="599" y="-271.3" font-family="Times,serif" font-size="14.00">id :bigint</text>
<text text-anchor="start" x="599" y="-256.3" font-family="Times,serif" font-size="14.00">description :character varying</text>
<text text-anchor="start" x="599" y="-241.3" font-family="Times,serif" font-size="14.00">weight :integer</text>
<text text-anchor="start" x="599" y="-226.3" font-family="Times,serif" font-size="14.00">challenge_id :bigint</text>
<text text-anchor="start" x="599" y="-211.3" font-family="Times,serif" font-size="14.00">winner :boolean</text>
<text text-anchor="start" x="599" y="-196.3" font-family="Times,serif" font-size="14.00">created_at :timestamp without time zone</text>
<text text-anchor="start" x="599" y="-181.3" font-family="Times,serif" font-size="14.00">updated_at :timestamp without time zone</text>
</g>
<!-- Challenge&#45;&gt;Party -->
<g id="edge15" class="edge"><title>Challenge&#45;&gt;Party</title>
<path fill="none" stroke="#146929" d="M809.262,-341.18C801.364,-333.084 793.56,-325.083 786.017,-317.35"/>
<ellipse fill="none" stroke="#146929" cx="812.333" cy="-344.328" rx="4.00002" ry="4.00002"/>
<polygon fill="#146929" stroke="#146929" points="785.549,-316.871 781.788,-306.571 782.058,-313.292 778.566,-309.713 778.566,-309.713 778.566,-309.713 782.058,-313.292 775.345,-312.855 785.549,-316.871 785.549,-316.871"/>
</g>
<!-- Challenge&#45;&gt;Participation -->
<g id="edge16" class="edge"><title>Challenge&#45;&gt;Participation</title>
<path fill="none" stroke="#07b648" d="M897.469,-337.286C881.837,-268.976 864.593,-187.92 853.867,-131.526"/>
<polygon fill="#07b648" stroke="#07b648" points="897.554,-337.658 895.408,-348.412 898.674,-342.531 899.794,-347.404 899.794,-347.404 899.794,-347.404 898.674,-342.531 904.18,-346.396 897.554,-337.658 897.554,-337.658"/>
<polygon fill="#07b648" stroke="#07b648" points="853.857,-131.47 856.43,-120.811 852.932,-126.557 852.008,-121.643 852.008,-121.643 852.008,-121.643 852.932,-126.557 847.585,-122.475 853.857,-131.47 853.857,-131.47"/>
</g>
<!-- Challenge&#45;&gt;Confirmation -->
<g id="edge17" class="edge"><title>Challenge&#45;&gt;Confirmation</title>
<path fill="none" stroke="#c22f21" d="M788.54,-351.723C785.375,-350.066 782.194,-348.489 779,-347 694.691,-307.697 636.594,-377.887 573,-310 527.057,-260.955 526.506,-180.309 535.21,-124.355"/>
<polygon fill="#c22f21" stroke="#c22f21" points="788.644,-351.78 795.247,-360.535 793.028,-354.185 797.411,-356.59 797.411,-356.59 797.411,-356.59 793.028,-354.185 799.576,-352.644 788.644,-351.78 788.644,-351.78"/>
<polygon fill="#c22f21" stroke="#c22f21" points="535.259,-124.066 541.37,-114.961 536.096,-119.137 536.934,-114.208 536.934,-114.208 536.934,-114.208 536.096,-119.137 532.497,-113.454 535.259,-124.066 535.259,-124.066"/>
</g>
<!-- Tag&#45;&gt;ChallengeTag -->
<g id="edge18" class="edge"><title>Tag&#45;&gt;ChallengeTag</title>
<path fill="none" stroke="#f12d32" d="M1063.54,-189.096C1076.67,-168.362 1091.91,-144.283 1105.58,-122.696"/>
<ellipse fill="none" stroke="#f12d32" cx="1061.36" cy="-192.538" rx="4.00002" ry="4.00002"/>
<polygon fill="#f12d32" stroke="#f12d32" points="1105.58,-122.694 1114.73,-116.652 1108.25,-118.469 1110.93,-114.245 1110.93,-114.245 1110.93,-114.245 1108.25,-118.469 1107.12,-111.838 1105.58,-122.694 1105.58,-122.694"/>
</g>
<!-- Party&#45;&gt;Participation -->
<g id="edge19" class="edge"><title>Party&#45;&gt;Participation</title>
<path fill="none" stroke="#2c11f8" d="M767.349,-166.445C776.27,-154.288 785.476,-141.745 794.277,-129.752"/>
<ellipse fill="none" stroke="#2c11f8" cx="764.705" cy="-170.046" rx="4.00002" ry="4.00002"/>
<polygon fill="#2c11f8" stroke="#2c11f8" points="794.381,-129.61 803.926,-124.211 797.34,-125.579 800.298,-121.548 800.298,-121.548 800.298,-121.548 797.34,-125.579 796.67,-118.886 794.381,-129.61 794.381,-129.61"/>
</g>
<!-- Party&#45;&gt;Confirmation -->
<g id="edge20" class="edge"><title>Party&#45;&gt;Confirmation</title>
<path fill="none" stroke="#0d845b" d="M647.767,-167.267C634.252,-152.094 620.168,-136.283 607.148,-121.666"/>
<ellipse fill="none" stroke="#0d845b" cx="650.455" cy="-170.284" rx="4.00002" ry="4.00002"/>
<polygon fill="#0d845b" stroke="#0d845b" points="607.096,-121.608 603.805,-111.147 603.77,-117.874 600.444,-114.14 600.444,-114.14 600.444,-114.14 603.77,-117.874 597.084,-117.134 607.096,-121.608 607.096,-121.608"/>
</g>
<!-- AdminUser -->
<g id="node14" class="node"><title>AdminUser</title>
<path fill="none" stroke="black" d="M940.5,-979.5C940.5,-979.5 1229.5,-979.5 1229.5,-979.5 1235.5,-979.5 1241.5,-985.5 1241.5,-991.5 1241.5,-991.5 1241.5,-1193.5 1241.5,-1193.5 1241.5,-1199.5 1235.5,-1205.5 1229.5,-1205.5 1229.5,-1205.5 940.5,-1205.5 940.5,-1205.5 934.5,-1205.5 928.5,-1199.5 928.5,-1193.5 928.5,-1193.5 928.5,-991.5 928.5,-991.5 928.5,-985.5 934.5,-979.5 940.5,-979.5"/>
<text text-anchor="middle" x="1085" y="-1190.3" font-family="Times,serif" font-size="14.00">AdminUser</text>
<polyline fill="none" stroke="black" points="928.5,-1182.5 1241.5,-1182.5 "/>
<text text-anchor="start" x="936.5" y="-1167.3" font-family="Times,serif" font-size="14.00">id :bigint</text>
<text text-anchor="start" x="936.5" y="-1152.3" font-family="Times,serif" font-size="14.00">email :character varying</text>
<text text-anchor="start" x="936.5" y="-1137.3" font-family="Times,serif" font-size="14.00">encrypted_password :character varying</text>
<text text-anchor="start" x="936.5" y="-1122.3" font-family="Times,serif" font-size="14.00">reset_password_token :character varying</text>
<text text-anchor="start" x="936.5" y="-1107.3" font-family="Times,serif" font-size="14.00">reset_password_sent_at :timestamp without time zone</text>
<text text-anchor="start" x="936.5" y="-1092.3" font-family="Times,serif" font-size="14.00">remember_created_at :timestamp without time zone</text>
<text text-anchor="start" x="936.5" y="-1077.3" font-family="Times,serif" font-size="14.00">sign_in_count :integer</text>
<text text-anchor="start" x="936.5" y="-1062.3" font-family="Times,serif" font-size="14.00">current_sign_in_at :timestamp without time zone</text>
<text text-anchor="start" x="936.5" y="-1047.3" font-family="Times,serif" font-size="14.00">last_sign_in_at :timestamp without time zone</text>
<text text-anchor="start" x="936.5" y="-1032.3" font-family="Times,serif" font-size="14.00">current_sign_in_ip :inet</text>
<text text-anchor="start" x="936.5" y="-1017.3" font-family="Times,serif" font-size="14.00">last_sign_in_ip :inet</text>
<text text-anchor="start" x="936.5" y="-1002.3" font-family="Times,serif" font-size="14.00">created_at :timestamp without time zone</text>
<text text-anchor="start" x="936.5" y="-987.3" font-family="Times,serif" font-size="14.00">updated_at :timestamp without time zone</text>
</g>
<!-- Participation&#45;&gt;Challenge -->
<g id="edge21" class="edge"><title>Participation&#45;&gt;Challenge</title>
<path fill="none" stroke="#0e2420" d="M863.855,-129.517C877.846,-186.588 896.332,-269.924 910.617,-339.503"/>
<ellipse fill="none" stroke="#0e2420" cx="862.87" cy="-125.526" rx="4.00001" ry="4.00001"/>
<ellipse fill="#0e2420" stroke="#0e2420" cx="911.432" cy="-343.485" rx="4.00001" ry="4.00001"/>
</g>
<!-- Confirmation&#45;&gt;Challenge -->
<g id="edge22" class="edge"><title>Confirmation&#45;&gt;Challenge</title>
<path fill="none" stroke="#27fb04" d="M549.385,-122.277C544.499,-178.297 544.485,-260.345 591,-310 652.731,-375.898 709.282,-311.691 790.466,-344.201"/>
<ellipse fill="none" stroke="#27fb04" cx="549.765" cy="-118.19" rx="4" ry="4"/>
<ellipse fill="#27fb04" stroke="#27fb04" cx="794.214" cy="-345.825" rx="4.00002" ry="4.00002"/>
</g>
<!-- Ability -->
<g id="node17" class="node"><title>Ability</title>
<polygon fill="none" stroke="black" points="1259.5,-1069.5 1259.5,-1115.5 1314.5,-1115.5 1314.5,-1069.5 1259.5,-1069.5"/>
<text text-anchor="middle" x="1287" y="-1100.3" font-family="Times,serif" font-size="14.00">Ability</text>
<polyline fill="none" stroke="black" points="1259.5,-1092.5 1314.5,-1092.5 "/>
<text text-anchor="middle" x="1287" y="-1077.3" font-family="Times,serif" font-size="14.00"> </text>
</g>
</g>
</svg>
