<?xml version="1.0" encoding="UTF-8" standalone="no"?>
<!DOCTYPE svg PUBLIC "-//W3C//DTD SVG 1.1//EN"
 "http://www.w3.org/Graphics/SVG/1.1/DTD/svg11.dtd">
<!-- Generated by graphviz version 2.38.0 (20140413.2041)
 -->
<!-- Title: models_diagram Pages: 1 -->
<svg width="1022pt" height="406pt"
 viewBox="0.00 0.00 1022.00 406.00" xmlns="http://www.w3.org/2000/svg" xmlns:xlink="http://www.w3.org/1999/xlink">
<g id="graph0" class="graph" transform="scale(1 1) rotate(0) translate(4 402)">
<title>models_diagram</title>
<polygon fill="none" stroke="none" points="-4,4 -4,-402 1018,-402 1018,4 -4,4"/>
<!-- _diagram_info -->
<g id="node1" class="node"><title>_diagram_info</title>
<text text-anchor="start" x="8" y="-383.6" font-family="Times,serif" font-size="13.00">Models diagram</text>
<text text-anchor="start" x="8" y="-369.6" font-family="Times,serif" font-size="13.00">Date: Apr 09 2018 &#45; 12:47</text>
<text text-anchor="start" x="8" y="-355.6" font-family="Times,serif" font-size="13.00">Migration version: 20180409142920</text>
<text text-anchor="start" x="8" y="-341.6" font-family="Times,serif" font-size="13.00">Generated by RailRoady 1.5.3</text>
<text text-anchor="start" x="8" y="-327.6" font-family="Times,serif" font-size="13.00">http://railroady.prestonlee.com</text>
</g>
<!-- ApplicationRecord -->
<g id="node2" class="node"><title>ApplicationRecord</title>
<ellipse fill="none" stroke="black" cx="309" cy="-359" rx="77.1866" ry="18"/>
<text text-anchor="middle" x="309" y="-355.3" font-family="Times,serif" font-size="14.00">ApplicationRecord</text>
</g>
<!-- Country -->
<g id="node3" class="node"><title>Country</title>
<ellipse fill="none" stroke="black" cx="444" cy="-359" rx="39.7935" ry="18"/>
<text text-anchor="middle" x="444" y="-355.3" font-family="Times,serif" font-size="14.00">Country</text>
</g>
<!-- Player -->
<g id="node6" class="node"><title>Player</title>
<ellipse fill="none" stroke="black" cx="488" cy="-265" rx="33.2948" ry="18"/>
<text text-anchor="middle" x="488" y="-261.3" font-family="Times,serif" font-size="14.00">Player</text>
</g>
<!-- Country&#45;&gt;Player -->
<g id="edge1" class="edge"><title>Country&#45;&gt;Player</title>
<path fill="none" stroke="#86e7f9" d="M455.641,-333.661C461.758,-320.871 469.259,-305.185 475.499,-292.138"/>
<ellipse fill="none" stroke="#86e7f9" cx="453.796" cy="-337.517" rx="4.00002" ry="4.00002"/>
<polygon fill="#86e7f9" stroke="#86e7f9" points="475.666,-291.789 484.04,-284.709 477.824,-287.278 479.981,-282.767 479.981,-282.767 479.981,-282.767 477.824,-287.278 475.921,-280.826 475.666,-291.789 475.666,-291.789"/>
</g>
<!-- Language -->
<g id="node4" class="node"><title>Language</title>
<ellipse fill="none" stroke="black" cx="835" cy="-265" rx="45.4919" ry="18"/>
<text text-anchor="middle" x="835" y="-261.3" font-family="Times,serif" font-size="14.00">Language</text>
</g>
<!-- Challenge -->
<g id="node9" class="node"><title>Challenge</title>
<ellipse fill="none" stroke="black" cx="596" cy="-178" rx="46.2923" ry="18"/>
<text text-anchor="middle" x="596" y="-174.3" font-family="Times,serif" font-size="14.00">Challenge</text>
</g>
<!-- Language&#45;&gt;Challenge -->
<g id="edge2" class="edge"><title>Language&#45;&gt;Challenge</title>
<path fill="none" stroke="#af60a9" d="M794.487,-249.592C751.178,-234.189 682.799,-209.87 638.676,-194.178"/>
<ellipse fill="none" stroke="#af60a9" cx="798.5" cy="-251.019" rx="4.00001" ry="4.00001"/>
<polygon fill="#af60a9" stroke="#af60a9" points="638.524,-194.124 630.61,-186.533 633.813,-192.448 629.102,-190.773 629.102,-190.773 629.102,-190.773 633.813,-192.448 627.595,-195.013 638.524,-194.124 638.524,-194.124"/>
</g>
<!-- Level -->
<g id="node5" class="node"><title>Level</title>
<ellipse fill="none" stroke="black" cx="532" cy="-359" rx="30.5947" ry="18"/>
<text text-anchor="middle" x="532" y="-355.3" font-family="Times,serif" font-size="14.00">Level</text>
</g>
<!-- Level&#45;&gt;Player -->
<g id="edge3" class="edge"><title>Level&#45;&gt;Player</title>
<path fill="none" stroke="#608700" d="M520.546,-334.05C514.326,-321.045 506.633,-304.959 500.288,-291.693"/>
<ellipse fill="none" stroke="#608700" cx="522.408" cy="-337.944" rx="4.00002" ry="4.00002"/>
<polygon fill="#608700" stroke="#608700" points="500.261,-291.637 500.006,-280.674 498.104,-287.126 495.947,-282.616 495.947,-282.616 495.947,-282.616 498.104,-287.126 491.887,-284.557 500.261,-291.637 500.261,-291.637"/>
</g>
<!-- Wallet -->
<g id="node7" class="node"><title>Wallet</title>
<ellipse fill="none" stroke="black" cx="872" cy="-105" rx="34.394" ry="18"/>
<text text-anchor="middle" x="872" y="-101.3" font-family="Times,serif" font-size="14.00">Wallet</text>
</g>
<!-- Player&#45;&gt;Wallet -->
<g id="edge4" class="edge"><title>Player&#45;&gt;Wallet</title>
<path fill="none" stroke="#5c40e1" d="M528.184,-259.133C562.637,-254.13 613.182,-244.794 655,-229 728.034,-201.416 805.819,-151.684 845.445,-124.677"/>
<ellipse fill="none" stroke="#5c40e1" cx="524.182" cy="-259.696" rx="4.00001" ry="4.00001"/>
<ellipse fill="#5c40e1" stroke="#5c40e1" cx="849.092" cy="-122.173" rx="4.00002" ry="4.00002"/>
</g>
<!-- Billing -->
<g id="node8" class="node"><title>Billing</title>
<ellipse fill="none" stroke="black" cx="488" cy="-178" rx="35.194" ry="18"/>
<text text-anchor="middle" x="488" y="-174.3" font-family="Times,serif" font-size="14.00">Billing</text>
</g>
<!-- Player&#45;&gt;Billing -->
<g id="edge5" class="edge"><title>Player&#45;&gt;Billing</title>
<path fill="none" stroke="#b27fad" d="M488,-238.694C488,-228.512 488,-216.747 488,-206.367"/>
<ellipse fill="none" stroke="#b27fad" cx="488" cy="-242.799" rx="4" ry="4"/>
<polygon fill="#b27fad" stroke="#b27fad" points="488,-206.175 492.5,-196.175 488,-201.175 488,-196.175 488,-196.175 488,-196.175 488,-201.175 483.5,-196.175 488,-206.175 488,-206.175"/>
</g>
<!-- Player&#45;&gt;Challenge -->
<g id="edge6" class="edge"><title>Player&#45;&gt;Challenge</title>
<path fill="none" stroke="#91e6c3" d="M512.839,-244.451C529.462,-231.368 551.351,-214.141 568.499,-200.644"/>
<ellipse fill="none" stroke="#91e6c3" cx="509.464" cy="-247.107" rx="4.00002" ry="4.00002"/>
<polygon fill="#91e6c3" stroke="#91e6c3" points="568.635,-200.538 579.276,-197.889 572.564,-197.445 576.493,-194.353 576.493,-194.353 576.493,-194.353 572.564,-197.445 573.71,-190.817 568.635,-200.538 568.635,-200.538"/>
<text text-anchor="middle" x="599.5" y="-217.8" font-family="Times,serif" font-size="14.00">created_challenges</text>
</g>
<!-- Participation -->
<g id="node15" class="node"><title>Participation</title>
<ellipse fill="none" stroke="black" cx="583" cy="-18" rx="55.7903" ry="18"/>
<text text-anchor="middle" x="583" y="-14.3" font-family="Times,serif" font-size="14.00">Participation</text>
</g>
<!-- Player&#45;&gt;Participation -->
<g id="edge7" class="edge"><title>Player&#45;&gt;Participation</title>
<path fill="none" stroke="#50ab29" d="M469.109,-242.01C459.564,-229.431 448.973,-212.84 444,-196 439.468,-180.655 439.412,-175.328 444,-160 460.174,-105.963 512.724,-63.2677 548.371,-39.5766"/>
<ellipse fill="none" stroke="#50ab29" cx="471.788" cy="-245.417" rx="4.00002" ry="4.00002"/>
<polygon fill="#50ab29" stroke="#50ab29" points="548.643,-39.4011 559.483,-37.7453 552.84,-36.6843 557.038,-33.9676 557.038,-33.9676 557.038,-33.9676 552.84,-36.6843 554.593,-30.1898 548.643,-39.4011 548.643,-39.4011"/>
</g>
<!-- Confirmation -->
<g id="node16" class="node"><title>Confirmation</title>
<ellipse fill="none" stroke="black" cx="451" cy="-18" rx="58.4896" ry="18"/>
<text text-anchor="middle" x="451" y="-14.3" font-family="Times,serif" font-size="14.00">Confirmation</text>
</g>
<!-- Player&#45;&gt;Confirmation -->
<g id="edge8" class="edge"><title>Player&#45;&gt;Confirmation</title>
<path fill="none" stroke="#bbe9ee" d="M448.031,-257.632C431.18,-252.755 413.15,-244.156 403,-229 367.882,-176.562 383.908,-147.154 403,-87 408.079,-70.9971 418.435,-55.5132 428.232,-43.3735"/>
<ellipse fill="none" stroke="#bbe9ee" cx="452.296" cy="-258.736" rx="4.00001" ry="4.00001"/>
<polygon fill="#bbe9ee" stroke="#bbe9ee" points="428.399,-43.1762 438.291,-38.4427 431.626,-39.3572 434.853,-35.5382 434.853,-35.5382 434.853,-35.5382 431.626,-39.3572 431.416,-32.6336 428.399,-43.1762 428.399,-43.1762"/>
</g>
<!-- Transaction -->
<g id="node18" class="node"><title>Transaction</title>
<ellipse fill="none" stroke="black" cx="882" cy="-18" rx="51.9908" ry="18"/>
<text text-anchor="middle" x="882" y="-14.3" font-family="Times,serif" font-size="14.00">Transaction</text>
</g>
<!-- Wallet&#45;&gt;Transaction -->
<g id="edge9" class="edge"><title>Wallet&#45;&gt;Transaction</title>
<path fill="none" stroke="#395305" d="M836.985,-90.8419C821.31,-84.1723 805.366,-76.0201 801,-69 797.479,-63.3389 797.338,-59.5711 801,-54 807.639,-43.8987 817.881,-36.6993 828.874,-31.5725"/>
<ellipse fill="none" stroke="#395305" cx="840.909" cy="-92.4602" rx="4.00001" ry="4.00001"/>
<polygon fill="#395305" stroke="#395305" points="828.971,-31.5328 839.931,-31.8982 833.596,-29.634 838.222,-27.7353 838.222,-27.7353 838.222,-27.7353 833.596,-29.634 836.513,-23.5724 828.971,-31.5328 828.971,-31.5328"/>
<text text-anchor="middle" x="848" y="-57.8" font-family="Times,serif" font-size="14.00">sent_transactions</text>
</g>
<!-- Wallet&#45;&gt;Transaction -->
<g id="edge10" class="edge"><title>Wallet&#45;&gt;Transaction</title>
<path fill="none" stroke="#5745d4" d="M889.464,-81.4596C891.741,-77.4952 893.724,-73.2666 895,-69 897.288,-61.3523 896.414,-52.979 894.3,-45.3088"/>
<ellipse fill="none" stroke="#5745d4" cx="887.283" cy="-84.8869" rx="4.00002" ry="4.00002"/>
<polygon fill="#5745d4" stroke="#5745d4" points="894.26,-45.1936 895.217,-34.2696 892.614,-40.4722 890.968,-35.7508 890.968,-35.7508 890.968,-35.7508 892.614,-40.4722 886.719,-37.2321 894.26,-45.1936 894.26,-45.1936"/>
<text text-anchor="middle" x="955" y="-57.8" font-family="Times,serif" font-size="14.00">received_transactions</text>
</g>
<!-- Challenge&#45;&gt;Wallet -->
<g id="edge11" class="edge"><title>Challenge&#45;&gt;Wallet</title>
<path fill="none" stroke="#0c70fc" d="M644.631,-167.748C691.939,-158.264 765.606,-142.211 828,-123 831.258,-121.997 834.62,-120.871 837.965,-119.688"/>
<ellipse fill="none" stroke="#0c70fc" cx="640.615" cy="-168.546" rx="4.00001" ry="4.00001"/>
<ellipse fill="#0c70fc" stroke="#0c70fc" cx="841.931" cy="-118.233" rx="4.00001" ry="4.00001"/>
</g>
<!-- Tag -->
<g id="node10" class="node"><title>Tag</title>
<ellipse fill="none" stroke="black" cx="660" cy="-105" rx="27" ry="18"/>
<text text-anchor="middle" x="660" y="-101.3" font-family="Times,serif" font-size="14.00">Tag</text>
</g>
<!-- Challenge&#45;&gt;Tag -->
<g id="edge13" class="edge"><title>Challenge&#45;&gt;Tag</title>
<path fill="none" stroke="#217bdd" d="M617.491,-153.159C624.658,-145.207 632.617,-136.378 639.692,-128.529"/>
<polygon fill="#217bdd" stroke="#217bdd" points="617.218,-153.461 607.18,-157.876 613.87,-157.175 610.523,-160.889 610.523,-160.889 610.523,-160.889 613.87,-157.175 613.865,-163.902 617.218,-153.461 617.218,-153.461"/>
<polygon fill="#217bdd" stroke="#217bdd" points="639.715,-128.504 649.753,-124.089 643.062,-124.79 646.41,-121.076 646.41,-121.076 646.41,-121.076 643.062,-124.79 643.068,-118.063 639.715,-128.504 639.715,-128.504"/>
</g>
<!-- ChallengeTag -->
<g id="node11" class="node"><title>ChallengeTag</title>
<ellipse fill="none" stroke="black" cx="717" cy="-18" rx="59.5901" ry="18"/>
<text text-anchor="middle" x="717" y="-14.3" font-family="Times,serif" font-size="14.00">ChallengeTag</text>
</g>
<!-- Challenge&#45;&gt;ChallengeTag -->
<g id="edge12" class="edge"><title>Challenge&#45;&gt;ChallengeTag</title>
<path fill="none" stroke="#fda7d5" d="M639.35,-163.33C659.504,-154.824 682.047,-141.84 696,-123 712.393,-100.866 716.8,-69.1061 717.631,-46.5175"/>
<ellipse fill="none" stroke="#fda7d5" cx="635.478" cy="-164.884" rx="4.00001" ry="4.00001"/>
<polygon fill="#fda7d5" stroke="#fda7d5" points="717.635,-46.2465 722.287,-36.3166 717.711,-41.2471 717.788,-36.2477 717.788,-36.2477 717.788,-36.2477 717.711,-41.2471 713.288,-36.1787 717.635,-46.2465 717.635,-46.2465"/>
</g>
<!-- Verifier -->
<g id="node12" class="node"><title>Verifier</title>
<ellipse fill="none" stroke="black" cx="781" cy="-105" rx="38.1938" ry="18"/>
<text text-anchor="middle" x="781" y="-101.3" font-family="Times,serif" font-size="14.00">Verifier</text>
</g>
<!-- Challenge&#45;&gt;Verifier -->
<g id="edge14" class="edge"><title>Challenge&#45;&gt;Verifier</title>
<path fill="none" stroke="#252efc" d="M645.539,-168.258C671.188,-162.675 702.58,-154.163 729,-142 737.79,-137.954 746.69,-132.427 754.583,-126.919"/>
<ellipse fill="none" stroke="#252efc" cx="641.341" cy="-169.143" rx="4.00001" ry="4.00001"/>
<polygon fill="#252efc" stroke="#252efc" points="754.61,-126.899 765.345,-124.66 758.655,-123.96 762.699,-121.02 762.699,-121.02 762.699,-121.02 758.655,-123.96 760.054,-117.38 754.61,-126.899 754.61,-126.899"/>
</g>
<!-- Party -->
<g id="node13" class="node"><title>Party</title>
<ellipse fill="none" stroke="black" cx="530" cy="-105" rx="29.4969" ry="18"/>
<text text-anchor="middle" x="530" y="-101.3" font-family="Times,serif" font-size="14.00">Party</text>
</g>
<!-- Challenge&#45;&gt;Party -->
<g id="edge15" class="edge"><title>Challenge&#45;&gt;Party</title>
<path fill="none" stroke="#d75b8c" d="M575.561,-155.013C567.721,-146.579 558.77,-136.95 550.889,-128.471"/>
<ellipse fill="none" stroke="#d75b8c" cx="578.3" cy="-157.959" rx="4.00002" ry="4.00002"/>
<polygon fill="#d75b8c" stroke="#d75b8c" points="550.823,-128.401 547.31,-118.012 547.419,-124.738 544.015,-121.076 544.015,-121.076 544.015,-121.076 547.419,-124.738 540.719,-124.14 550.823,-128.401 550.823,-128.401"/>
</g>
<!-- Challenge&#45;&gt;Participation -->
<g id="edge16" class="edge"><title>Challenge&#45;&gt;Participation</title>
<path fill="none" stroke="#767361" d="M588.537,-149.927C584.153,-121.054 580.4,-75.5684 579.998,-46.5239"/>
<polygon fill="#767361" stroke="#767361" points="588.587,-150.229 585.8,-160.834 589.413,-155.16 590.238,-160.091 590.238,-160.091 590.238,-160.091 589.413,-155.16 594.677,-159.348 588.587,-150.229 588.587,-150.229"/>
<polygon fill="#767361" stroke="#767361" points="579.998,-46.2662 584.513,-36.2731 580.006,-41.2662 580.013,-36.2662 580.013,-36.2662 580.013,-36.2662 580.006,-41.2662 575.513,-36.2593 579.998,-46.2662 579.998,-46.2662"/>
</g>
<!-- Challenge&#45;&gt;Confirmation -->
<g id="edge17" class="edge"><title>Challenge&#45;&gt;Confirmation</title>
<path fill="none" stroke="#d62605" d="M548.602,-164.276C525.981,-155.603 500.284,-142.171 483,-123 463.366,-101.224 452.627,-68.9304 448.972,-46.1168"/>
<polygon fill="#d62605" stroke="#d62605" points="548.672,-164.301 556.544,-171.936 553.374,-166.003 558.075,-167.704 558.075,-167.704 558.075,-167.704 553.374,-166.003 559.607,-163.473 548.672,-164.301 548.672,-164.301"/>
<polygon fill="#d62605" stroke="#d62605" points="448.958,-45.9986 452.228,-35.532 448.359,-41.0346 447.761,-36.0705 447.761,-36.0705 447.761,-36.0705 448.359,-41.0346 443.293,-36.609 448.958,-45.9986 448.958,-45.9986"/>
</g>
<!-- Tag&#45;&gt;ChallengeTag -->
<g id="edge18" class="edge"><title>Tag&#45;&gt;ChallengeTag</title>
<path fill="none" stroke="#ad71bb" d="M675.201,-81.3325C682.853,-69.9203 692.155,-56.0489 700.04,-44.2916"/>
<ellipse fill="none" stroke="#ad71bb" cx="672.949" cy="-84.69" rx="4.00002" ry="4.00002"/>
<polygon fill="#ad71bb" stroke="#ad71bb" points="700.172,-44.094 709.479,-38.2948 702.957,-39.9412 705.742,-35.7885 705.742,-35.7885 705.742,-35.7885 702.957,-39.9412 702.004,-33.2822 700.172,-44.094 700.172,-44.094"/>
</g>
<!-- Party&#45;&gt;Participation -->
<g id="edge19" class="edge"><title>Party&#45;&gt;Participation</title>
<path fill="none" stroke="#146a9a" d="M544.378,-80.941C551.394,-69.6889 559.855,-56.1195 567.067,-44.5528"/>
<ellipse fill="none" stroke="#146a9a" cx="542.085" cy="-84.6179" rx="4.00002" ry="4.00002"/>
<polygon fill="#146a9a" stroke="#146a9a" points="567.241,-44.2741 576.35,-38.1695 569.886,-40.0313 572.532,-35.7885 572.532,-35.7885 572.532,-35.7885 569.886,-40.0313 568.713,-33.4075 567.241,-44.2741 567.241,-44.2741"/>
</g>
<!-- Party&#45;&gt;Confirmation -->
<g id="edge20" class="edge"><title>Party&#45;&gt;Confirmation</title>
<path fill="none" stroke="#9ed889" d="M510.336,-82.8422C499.075,-70.726 484.909,-55.4844 473.243,-42.9323"/>
<ellipse fill="none" stroke="#9ed889" cx="513.153" cy="-85.8737" rx="4.00002" ry="4.00002"/>
<polygon fill="#9ed889" stroke="#9ed889" points="473.158,-42.8413 469.647,-32.4529 469.755,-39.1789 466.351,-35.5164 466.351,-35.5164 466.351,-35.5164 469.755,-39.1789 463.054,-38.58 473.158,-42.8413 473.158,-42.8413"/>
</g>
<!-- AdminUser -->
<g id="node14" class="node"><title>AdminUser</title>
<ellipse fill="none" stroke="black" cx="633" cy="-359" rx="51.9908" ry="18"/>
<text text-anchor="middle" x="633" y="-355.3" font-family="Times,serif" font-size="14.00">AdminUser</text>
</g>
<!-- Participation&#45;&gt;Challenge -->
<g id="edge21" class="edge"><title>Participation&#45;&gt;Challenge</title>
<path fill="none" stroke="#3110ee" d="M590.195,-44.3302C594.807,-73.8144 598.789,-122.217 599.027,-151.692"/>
<ellipse fill="none" stroke="#3110ee" cx="589.483" cy="-40.132" rx="4.00001" ry="4.00001"/>
<ellipse fill="#3110ee" stroke="#3110ee" cx="599.006" cy="-155.791" rx="4" ry="4"/>
</g>
<!-- Confirmation&#45;&gt;Challenge -->
<g id="edge22" class="edge"><title>Confirmation&#45;&gt;Challenge</title>
<path fill="none" stroke="#ae1693" d="M462.583,-43.9782C469.956,-66.8742 480.744,-100.534 501,-123 516.394,-140.074 538.461,-152.596 557.537,-161.258"/>
<ellipse fill="none" stroke="#ae1693" cx="461.248" cy="-39.8743" rx="4.00001" ry="4.00001"/>
<ellipse fill="#ae1693" stroke="#ae1693" cx="561.289" cy="-162.901" rx="4.00002" ry="4.00002"/>
</g>
<!-- Ability -->
<g id="node17" class="node"><title>Ability</title>
<polygon fill="none" stroke="black" points="757.5,-377 702.5,-377 702.5,-341 757.5,-341 757.5,-377"/>
<text text-anchor="middle" x="730" y="-355.3" font-family="Times,serif" font-size="14.00">Ability</text>
</g>
</g>
</svg>
